<svg width="29.000000" height="30.000000" viewBox="0 0 29 30" fill="none" xmlns="http://www.w3.org/2000/svg" xmlns:xlink="http://www.w3.org/1999/xlink">
	<desc>
			Created with Pixso.
	</desc>
	<defs/>
	<path id="Vector" d="M25.66 2.83L25.66 20.33L8.16 20.33L8.16 2.83L25.66 2.83ZM25.66 -0.09L8.16 -0.09C6.56 -0.09 5.25 1.22 5.25 2.83L5.25 20.33C5.25 21.93 6.56 23.25 8.16 23.25L25.66 23.25C27.27 23.25 28.58 21.93 28.58 20.33L28.58 2.83C28.58 1.22 27.27 -0.09 25.66 -0.09ZM14.68 17.41L9.62 12.31L11.66 10.25L14.68 13.28L22.16 5.75L24.2 7.8L14.68 17.41ZM2.33 5.75L-0.59 5.75L-0.59 26.16C-0.59 27.77 0.72 29.08 2.33 29.08L22.75 29.08L22.75 26.16L2.33 26.16L2.33 5.75Z" fill="#4F8FF0" fill-opacity="1.000000" fill-rule="nonzero"/>
</svg>
